# xmcd
# Track frame offsets:
# 150
# 18098
# 43259
# 60273
# 82180
# 100091
# 120106
# 136589
# 155800
# 174440
# 195625
#
# Disc length: 2879 seconds
# Revision: 0
# Processed by: cddbd v1.5PL3 Copyright (c) Steve Scherf et al.
# Submitted via: VisiTrax 2.9.9.202 - For more info visit www.synapsa.com
#
DISCID=800b3d0b
DTITLE=Roscoe Robinson - So Called Friends
DYEAR=2004
DGENRE=Blues
TTITLE0=So Called Friends
TTITLE1=I Who Have Nothing
TTITLE2=Fine Lady
TTITLE3=Something Moving In Me
TTITLE4=You'll Fall In Love Again
TTITLE5=I Wouldn't Know Where To Turn
TTITLE6=I Honestly Love You
TTITLE7=Get Up To It
TTITLE8=We've Come A Long Way
TTITLE9=Let It Be Me
TTITLE10=Just The Way You Are
EXTD=
EXTT0=
EXTT1=
EXTT2=
EXTT3=
EXTT4=
EXTT5=
EXTT6=
EXTT7=
EXTT8=
EXTT9=
EXTT10=
PLAYORDER=
